# xmcd
#
# Track frame offsets: 
#        200
#        17162
#        31862
#        48052
#        59987
#        76980
#        90030
#        110487
#        128822
#        142272
#        164922
#
# Disc length: 2406 seconds
#
# Revision: 4
# Processed by: cddbd v1.5.2PL0 Copyright (c) Steve Scherf et al.
# Submitted via: ExactAudioCopyFreeDBPlugin 1.0
#
DISCID=9209640b
DTITLE=Sally Van Meter - All In Good Time
DYEAR=1991
DGENRE=Bluegrass
TTITLE0=High Country
TTITLE1=Blues For Your Own
TTITLE2=Tyson's Dream
TTITLE3=Crazy Creek
TTITLE4=Anne's Waltz
TTITLE5=Weary Lonesome Blues
TTITLE6=The Bird That I Held In My Hand
TTITLE7=Amor De Mi Vida
TTITLE8=Road to Columbus
TTITLE9=Damien Miley-The Idlers of Belltown
TTITLE10=We're Not Over Yet
EXTD=
EXTT0=
EXTT1=
EXTT2=
EXTT3=
EXTT4=
EXTT5=
EXTT6=
EXTT7=
EXTT8=
EXTT9=
EXTT10=
PLAYORDER=
